<?xml version="1.0" encoding="UTF-8" standalone="no"?>
<!DOCTYPE svg PUBLIC "-//W3C//DTD SVG 1.1//EN"
 "http://www.w3.org/Graphics/SVG/1.1/DTD/svg11.dtd">
<!-- Generated by graphviz version 2.43.0 (0)
 -->
<!-- Title: %3 Pages: 1 -->
<svg width="264pt" height="875pt"
 viewBox="0.00 0.00 264.27 875.00" xmlns="http://www.w3.org/2000/svg" xmlns:xlink="http://www.w3.org/1999/xlink">
<g id="graph0" class="graph" transform="scale(1.3 1.3) rotate(0) translate(4 1135)">
<title>%3</title>
<polygon fill="white" stroke="transparent" points="-4,4 -4,-1135 340,-1135 340,4 -4,4"/>
<!-- 140358501091184 -->
<g id="node1" class="node">
<title>140358501091184</title>
<polygon fill="#caff70" stroke="black" points="199.5,-31 145.5,-31 145.5,0 199.5,0 199.5,-31"/>
<text text-anchor="middle" x="172.5" y="-7" font-family="monospace" font-size="10.00"> ()</text>
</g>
<!-- 140358495030864 -->
<g id="node2" class="node">
<title>140358495030864</title>
<polygon fill="lightgrey" stroke="black" points="220,-86 125,-86 125,-67 220,-67 220,-86"/>
<text text-anchor="middle" x="172.5" y="-74" font-family="monospace" font-size="10.00">MeanBackward0</text>
</g>
<!-- 140358495030864&#45;&gt;140358501091184 -->
<g id="edge40" class="edge">
<title>140358495030864&#45;&gt;140358501091184</title>
<path fill="none" stroke="black" d="M172.5,-66.79C172.5,-60.07 172.5,-50.4 172.5,-41.34"/>
<polygon fill="black" stroke="black" points="176,-41.19 172.5,-31.19 169,-41.19 176,-41.19"/>
</g>
<!-- 140358495029472 -->
<g id="node3" class="node">
<title>140358495029472</title>
<polygon fill="lightgrey" stroke="black" points="238,-141 107,-141 107,-122 238,-122 238,-141"/>
<text text-anchor="middle" x="172.5" y="-129" font-family="monospace" font-size="10.00">LogSoftmaxBackward0</text>
</g>
<!-- 140358495029472&#45;&gt;140358495030864 -->
<g id="edge1" class="edge">
<title>140358495029472&#45;&gt;140358495030864</title>
<path fill="none" stroke="black" d="M172.5,-121.75C172.5,-114.8 172.5,-104.85 172.5,-96.13"/>
<polygon fill="black" stroke="black" points="176,-96.09 172.5,-86.09 169,-96.09 176,-96.09"/>
</g>
<!-- 140358495035520 -->
<g id="node4" class="node">
<title>140358495035520</title>
<polygon fill="lightgrey" stroke="black" points="223,-196 122,-196 122,-177 223,-177 223,-196"/>
<text text-anchor="middle" x="172.5" y="-184" font-family="monospace" font-size="10.00">AddmmBackward0</text>
</g>
<!-- 140358495035520&#45;&gt;140358495029472 -->
<g id="edge2" class="edge">
<title>140358495035520&#45;&gt;140358495029472</title>
<path fill="none" stroke="black" d="M172.5,-176.75C172.5,-169.8 172.5,-159.85 172.5,-151.13"/>
<polygon fill="black" stroke="black" points="176,-151.09 172.5,-141.09 169,-151.09 176,-151.09"/>
</g>
<!-- 140358495029760 -->
<g id="node5" class="node">
<title>140358495029760</title>
<polygon fill="lightgrey" stroke="black" points="110,-251 9,-251 9,-232 110,-232 110,-251"/>
<text text-anchor="middle" x="59.5" y="-239" font-family="monospace" font-size="10.00">AccumulateGrad</text>
</g>
<!-- 140358495029760&#45;&gt;140358495035520 -->
<g id="edge3" class="edge">
<title>140358495029760&#45;&gt;140358495035520</title>
<path fill="none" stroke="black" d="M77.66,-231.98C95.75,-223.5 123.78,-210.35 144.69,-200.54"/>
<polygon fill="black" stroke="black" points="146.45,-203.59 154.01,-196.17 143.47,-197.25 146.45,-203.59"/>
</g>
<!-- 140358494017136 -->
<g id="node6" class="node">
<title>140358494017136</title>
<polygon fill="lightblue" stroke="black" points="101,-317 18,-317 18,-287 101,-287 101,-317"/>
<text text-anchor="middle" x="59.5" y="-305" font-family="monospace" font-size="10.00">output.bias</text>
<text text-anchor="middle" x="59.5" y="-294" font-family="monospace" font-size="10.00"> (6)</text>
</g>
<!-- 140358494017136&#45;&gt;140358495029760 -->
<g id="edge4" class="edge">
<title>140358494017136&#45;&gt;140358495029760</title>
<path fill="none" stroke="black" d="M59.5,-286.84C59.5,-279.21 59.5,-269.7 59.5,-261.45"/>
<polygon fill="black" stroke="black" points="63,-261.27 59.5,-251.27 56,-261.27 63,-261.27"/>
</g>
<!-- 140358495034272 -->
<g id="node7" class="node">
<title>140358495034272</title>
<polygon fill="lightgrey" stroke="black" points="217,-251 128,-251 128,-232 217,-232 217,-251"/>
<text text-anchor="middle" x="172.5" y="-239" font-family="monospace" font-size="10.00">MulBackward0</text>
</g>
<!-- 140358495034272&#45;&gt;140358495035520 -->
<g id="edge5" class="edge">
<title>140358495034272&#45;&gt;140358495035520</title>
<path fill="none" stroke="black" d="M172.5,-231.75C172.5,-224.8 172.5,-214.85 172.5,-206.13"/>
<polygon fill="black" stroke="black" points="176,-206.09 172.5,-196.09 169,-206.09 176,-206.09"/>
</g>
<!-- 140358495040992 -->
<g id="node8" class="node">
<title>140358495040992</title>
<polygon fill="lightgrey" stroke="black" points="217,-311.5 122,-311.5 122,-292.5 217,-292.5 217,-311.5"/>
<text text-anchor="middle" x="169.5" y="-299.5" font-family="monospace" font-size="10.00">TanhBackward0</text>
</g>
<!-- 140358495040992&#45;&gt;140358495034272 -->
<g id="edge6" class="edge">
<title>140358495040992&#45;&gt;140358495034272</title>
<path fill="none" stroke="black" d="M169.94,-292.37C170.36,-284.25 171,-271.81 171.53,-261.39"/>
<polygon fill="black" stroke="black" points="175.04,-261.33 172.06,-251.17 168.05,-260.97 175.04,-261.33"/>
</g>
<!-- 140358495043200 -->
<g id="node9" class="node">
<title>140358495043200</title>
<polygon fill="lightgrey" stroke="black" points="220,-377.5 119,-377.5 119,-358.5 220,-358.5 220,-377.5"/>
<text text-anchor="middle" x="169.5" y="-365.5" font-family="monospace" font-size="10.00">AddmmBackward0</text>
</g>
<!-- 140358495043200&#45;&gt;140358495040992 -->
<g id="edge7" class="edge">
<title>140358495043200&#45;&gt;140358495040992</title>
<path fill="none" stroke="black" d="M169.5,-358.37C169.5,-349.16 169.5,-334.29 169.5,-322.27"/>
<polygon fill="black" stroke="black" points="173,-321.91 169.5,-311.91 166,-321.91 173,-321.91"/>
</g>
<!-- 140358496858896 -->
<g id="node10" class="node">
<title>140358496858896</title>
<polygon fill="lightgrey" stroke="black" points="107,-438 6,-438 6,-419 107,-419 107,-438"/>
<text text-anchor="middle" x="56.5" y="-426" font-family="monospace" font-size="10.00">AccumulateGrad</text>
</g>
<!-- 140358496858896&#45;&gt;140358495043200 -->
<g id="edge8" class="edge">
<title>140358496858896&#45;&gt;140358495043200</title>
<path fill="none" stroke="black" d="M73.17,-418.87C91.78,-409.23 122.12,-393.53 143.78,-382.31"/>
<polygon fill="black" stroke="black" points="145.49,-385.37 152.76,-377.67 142.27,-379.16 145.49,-385.37"/>
</g>
<!-- 140358494016896 -->
<g id="node11" class="node">
<title>140358494016896</title>
<polygon fill="lightblue" stroke="black" points="101,-504 12,-504 12,-474 101,-474 101,-504"/>
<text text-anchor="middle" x="56.5" y="-492" font-family="monospace" font-size="10.00">hidden4.bias</text>
<text text-anchor="middle" x="56.5" y="-481" font-family="monospace" font-size="10.00"> (64)</text>
</g>
<!-- 140358494016896&#45;&gt;140358496858896 -->
<g id="edge9" class="edge">
<title>140358494016896&#45;&gt;140358496858896</title>
<path fill="none" stroke="black" d="M56.5,-473.84C56.5,-466.21 56.5,-456.7 56.5,-448.45"/>
<polygon fill="black" stroke="black" points="60,-448.27 56.5,-438.27 53,-448.27 60,-448.27"/>
</g>
<!-- 140358496854816 -->
<g id="node12" class="node">
<title>140358496854816</title>
<polygon fill="lightgrey" stroke="black" points="214,-438 125,-438 125,-419 214,-419 214,-438"/>
<text text-anchor="middle" x="169.5" y="-426" font-family="monospace" font-size="10.00">MulBackward0</text>
</g>
<!-- 140358496854816&#45;&gt;140358495043200 -->
<g id="edge10" class="edge">
<title>140358496854816&#45;&gt;140358495043200</title>
<path fill="none" stroke="black" d="M169.5,-418.87C169.5,-410.75 169.5,-398.31 169.5,-387.89"/>
<polygon fill="black" stroke="black" points="173,-387.67 169.5,-377.67 166,-387.67 173,-387.67"/>
</g>
<!-- 140358496859136 -->
<g id="node13" class="node">
<title>140358496859136</title>
<polygon fill="lightgrey" stroke="black" points="215,-498.5 120,-498.5 120,-479.5 215,-479.5 215,-498.5"/>
<text text-anchor="middle" x="167.5" y="-486.5" font-family="monospace" font-size="10.00">TanhBackward0</text>
</g>
<!-- 140358496859136&#45;&gt;140358496854816 -->
<g id="edge11" class="edge">
<title>140358496859136&#45;&gt;140358496854816</title>
<path fill="none" stroke="black" d="M167.8,-479.37C168.07,-471.25 168.5,-458.81 168.85,-448.39"/>
<polygon fill="black" stroke="black" points="172.36,-448.28 169.2,-438.17 165.36,-448.04 172.36,-448.28"/>
</g>
<!-- 140358496848000 -->
<g id="node14" class="node">
<title>140358496848000</title>
<polygon fill="lightgrey" stroke="black" points="217,-564.5 116,-564.5 116,-545.5 217,-545.5 217,-564.5"/>
<text text-anchor="middle" x="166.5" y="-552.5" font-family="monospace" font-size="10.00">AddmmBackward0</text>
</g>
<!-- 140358496848000&#45;&gt;140358496859136 -->
<g id="edge12" class="edge">
<title>140358496848000&#45;&gt;140358496859136</title>
<path fill="none" stroke="black" d="M166.63,-545.37C166.78,-536.16 167.01,-521.29 167.2,-509.27"/>
<polygon fill="black" stroke="black" points="170.7,-508.96 167.36,-498.91 163.7,-508.85 170.7,-508.96"/>
</g>
<!-- 140358496855440 -->
<g id="node15" class="node">
<title>140358496855440</title>
<polygon fill="lightgrey" stroke="black" points="104,-625 3,-625 3,-606 104,-606 104,-625"/>
<text text-anchor="middle" x="53.5" y="-613" font-family="monospace" font-size="10.00">AccumulateGrad</text>
</g>
<!-- 140358496855440&#45;&gt;140358496848000 -->
<g id="edge13" class="edge">
<title>140358496855440&#45;&gt;140358496848000</title>
<path fill="none" stroke="black" d="M70.17,-605.87C88.78,-596.23 119.12,-580.53 140.78,-569.31"/>
<polygon fill="black" stroke="black" points="142.49,-572.37 149.76,-564.67 139.27,-566.16 142.49,-572.37"/>
</g>
<!-- 140358494923776 -->
<g id="node16" class="node">
<title>140358494923776</title>
<polygon fill="lightblue" stroke="black" points="98,-691 9,-691 9,-661 98,-661 98,-691"/>
<text text-anchor="middle" x="53.5" y="-679" font-family="monospace" font-size="10.00">hidden3.bias</text>
<text text-anchor="middle" x="53.5" y="-668" font-family="monospace" font-size="10.00"> (256)</text>
</g>
<!-- 140358494923776&#45;&gt;140358496855440 -->
<g id="edge14" class="edge">
<title>140358494923776&#45;&gt;140358496855440</title>
<path fill="none" stroke="black" d="M53.5,-660.84C53.5,-653.21 53.5,-643.7 53.5,-635.45"/>
<polygon fill="black" stroke="black" points="57,-635.27 53.5,-625.27 50,-635.27 57,-635.27"/>
</g>
<!-- 140358496860672 -->
<g id="node17" class="node">
<title>140358496860672</title>
<polygon fill="lightgrey" stroke="black" points="211,-625 122,-625 122,-606 211,-606 211,-625"/>
<text text-anchor="middle" x="166.5" y="-613" font-family="monospace" font-size="10.00">MulBackward0</text>
</g>
<!-- 140358496860672&#45;&gt;140358496848000 -->
<g id="edge15" class="edge">
<title>140358496860672&#45;&gt;140358496848000</title>
<path fill="none" stroke="black" d="M166.5,-605.87C166.5,-597.75 166.5,-585.31 166.5,-574.89"/>
<polygon fill="black" stroke="black" points="170,-574.67 166.5,-564.67 163,-574.67 170,-574.67"/>
</g>
<!-- 140358496860000 -->
<g id="node18" class="node">
<title>140358496860000</title>
<polygon fill="lightgrey" stroke="black" points="212,-685.5 117,-685.5 117,-666.5 212,-666.5 212,-685.5"/>
<text text-anchor="middle" x="164.5" y="-673.5" font-family="monospace" font-size="10.00">TanhBackward0</text>
</g>
<!-- 140358496860000&#45;&gt;140358496860672 -->
<g id="edge16" class="edge">
<title>140358496860000&#45;&gt;140358496860672</title>
<path fill="none" stroke="black" d="M164.8,-666.37C165.07,-658.25 165.5,-645.81 165.85,-635.39"/>
<polygon fill="black" stroke="black" points="169.36,-635.28 166.2,-625.17 162.36,-635.04 169.36,-635.28"/>
</g>
<!-- 140358496858560 -->
<g id="node19" class="node">
<title>140358496858560</title>
<polygon fill="lightgrey" stroke="black" points="214,-751.5 113,-751.5 113,-732.5 214,-732.5 214,-751.5"/>
<text text-anchor="middle" x="163.5" y="-739.5" font-family="monospace" font-size="10.00">AddmmBackward0</text>
</g>
<!-- 140358496858560&#45;&gt;140358496860000 -->
<g id="edge17" class="edge">
<title>140358496858560&#45;&gt;140358496860000</title>
<path fill="none" stroke="black" d="M163.63,-732.37C163.78,-723.16 164.01,-708.29 164.2,-696.27"/>
<polygon fill="black" stroke="black" points="167.7,-695.96 164.36,-685.91 160.7,-695.85 167.7,-695.96"/>
</g>
<!-- 140358496859760 -->
<g id="node20" class="node">
<title>140358496859760</title>
<polygon fill="lightgrey" stroke="black" points="101,-812 0,-812 0,-793 101,-793 101,-812"/>
<text text-anchor="middle" x="50.5" y="-800" font-family="monospace" font-size="10.00">AccumulateGrad</text>
</g>
<!-- 140358496859760&#45;&gt;140358496858560 -->
<g id="edge18" class="edge">
<title>140358496859760&#45;&gt;140358496858560</title>
<path fill="none" stroke="black" d="M67.17,-792.87C85.78,-783.23 116.12,-767.53 137.78,-756.31"/>
<polygon fill="black" stroke="black" points="139.49,-759.37 146.76,-751.67 136.27,-753.16 139.49,-759.37"/>
</g>
<!-- 140358501090544 -->
<g id="node21" class="node">
<title>140358501090544</title>
<polygon fill="lightblue" stroke="black" points="95,-878 6,-878 6,-848 95,-848 95,-878"/>
<text text-anchor="middle" x="50.5" y="-866" font-family="monospace" font-size="10.00">hidden2.bias</text>
<text text-anchor="middle" x="50.5" y="-855" font-family="monospace" font-size="10.00"> (512)</text>
</g>
<!-- 140358501090544&#45;&gt;140358496859760 -->
<g id="edge19" class="edge">
<title>140358501090544&#45;&gt;140358496859760</title>
<path fill="none" stroke="black" d="M50.5,-847.84C50.5,-840.21 50.5,-830.7 50.5,-822.45"/>
<polygon fill="black" stroke="black" points="54,-822.27 50.5,-812.27 47,-822.27 54,-822.27"/>
</g>
<!-- 140358498823200 -->
<g id="node22" class="node">
<title>140358498823200</title>
<polygon fill="lightgrey" stroke="black" points="208,-812 119,-812 119,-793 208,-793 208,-812"/>
<text text-anchor="middle" x="163.5" y="-800" font-family="monospace" font-size="10.00">MulBackward0</text>
</g>
<!-- 140358498823200&#45;&gt;140358496858560 -->
<g id="edge20" class="edge">
<title>140358498823200&#45;&gt;140358496858560</title>
<path fill="none" stroke="black" d="M163.5,-792.87C163.5,-784.75 163.5,-772.31 163.5,-761.89"/>
<polygon fill="black" stroke="black" points="167,-761.67 163.5,-751.67 160,-761.67 167,-761.67"/>
</g>
<!-- 140358498822384 -->
<g id="node23" class="node">
<title>140358498822384</title>
<polygon fill="lightgrey" stroke="black" points="209,-872.5 114,-872.5 114,-853.5 209,-853.5 209,-872.5"/>
<text text-anchor="middle" x="161.5" y="-860.5" font-family="monospace" font-size="10.00">TanhBackward0</text>
</g>
<!-- 140358498822384&#45;&gt;140358498823200 -->
<g id="edge21" class="edge">
<title>140358498822384&#45;&gt;140358498823200</title>
<path fill="none" stroke="black" d="M161.8,-853.37C162.07,-845.25 162.5,-832.81 162.85,-822.39"/>
<polygon fill="black" stroke="black" points="166.36,-822.28 163.2,-812.17 159.36,-822.04 166.36,-822.28"/>
</g>
<!-- 140358498823248 -->
<g id="node24" class="node">
<title>140358498823248</title>
<polygon fill="lightgrey" stroke="black" points="211,-938.5 110,-938.5 110,-919.5 211,-919.5 211,-938.5"/>
<text text-anchor="middle" x="160.5" y="-926.5" font-family="monospace" font-size="10.00">AddmmBackward0</text>
</g>
<!-- 140358498823248&#45;&gt;140358498822384 -->
<g id="edge22" class="edge">
<title>140358498823248&#45;&gt;140358498822384</title>
<path fill="none" stroke="black" d="M160.63,-919.37C160.78,-910.16 161.01,-895.29 161.2,-883.27"/>
<polygon fill="black" stroke="black" points="164.7,-882.96 161.36,-872.91 157.7,-882.85 164.7,-882.96"/>
</g>
<!-- 140358498822960 -->
<g id="node25" class="node">
<title>140358498822960</title>
<polygon fill="lightgrey" stroke="black" points="158,-999 57,-999 57,-980 158,-980 158,-999"/>
<text text-anchor="middle" x="107.5" y="-987" font-family="monospace" font-size="10.00">AccumulateGrad</text>
</g>
<!-- 140358498822960&#45;&gt;140358498823248 -->
<g id="edge23" class="edge">
<title>140358498822960&#45;&gt;140358498823248</title>
<path fill="none" stroke="black" d="M115.32,-979.87C123.31,-971.05 135.89,-957.16 145.76,-946.27"/>
<polygon fill="black" stroke="black" points="148.53,-948.43 152.65,-938.67 143.34,-943.73 148.53,-948.43"/>
</g>
<!-- 140358501092544 -->
<g id="node26" class="node">
<title>140358501092544</title>
<polygon fill="lightblue" stroke="black" points="149,-1065 60,-1065 60,-1035 149,-1035 149,-1065"/>
<text text-anchor="middle" x="104.5" y="-1053" font-family="monospace" font-size="10.00">hidden1.bias</text>
<text text-anchor="middle" x="104.5" y="-1042" font-family="monospace" font-size="10.00"> (256)</text>
</g>
<!-- 140358501092544&#45;&gt;140358498822960 -->
<g id="edge24" class="edge">
<title>140358501092544&#45;&gt;140358498822960</title>
<path fill="none" stroke="black" d="M105.23,-1034.84C105.62,-1027.21 106.1,-1017.7 106.53,-1009.45"/>
<polygon fill="black" stroke="black" points="110.03,-1009.43 107.05,-999.27 103.04,-1009.07 110.03,-1009.43"/>
</g>
<!-- 140358498822672 -->
<g id="node27" class="node">
<title>140358498822672</title>
<polygon fill="lightgrey" stroke="black" points="254,-999 177,-999 177,-980 254,-980 254,-999"/>
<text text-anchor="middle" x="215.5" y="-987" font-family="monospace" font-size="10.00">TBackward0</text>
</g>
<!-- 140358498822672&#45;&gt;140358498823248 -->
<g id="edge25" class="edge">
<title>140358498822672&#45;&gt;140358498823248</title>
<path fill="none" stroke="black" d="M207.38,-979.87C199.1,-971.05 186.03,-957.16 175.8,-946.27"/>
<polygon fill="black" stroke="black" points="178.05,-943.56 168.65,-938.67 172.95,-948.35 178.05,-943.56"/>
</g>
<!-- 140358498822336 -->
<g id="node28" class="node">
<title>140358498822336</title>
<polygon fill="lightgrey" stroke="black" points="268,-1059.5 167,-1059.5 167,-1040.5 268,-1040.5 268,-1059.5"/>
<text text-anchor="middle" x="217.5" y="-1047.5" font-family="monospace" font-size="10.00">AccumulateGrad</text>
</g>
<!-- 140358498822336&#45;&gt;140358498822672 -->
<g id="edge26" class="edge">
<title>140358498822336&#45;&gt;140358498822672</title>
<path fill="none" stroke="black" d="M217.2,-1040.37C216.93,-1032.25 216.5,-1019.81 216.15,-1009.39"/>
<polygon fill="black" stroke="black" points="219.64,-1009.04 215.8,-999.17 212.64,-1009.28 219.64,-1009.04"/>
</g>
<!-- 140358501091824 -->
<g id="node29" class="node">
<title>140358501091824</title>
<polygon fill="lightblue" stroke="black" points="268,-1131 167,-1131 167,-1101 268,-1101 268,-1131"/>
<text text-anchor="middle" x="217.5" y="-1119" font-family="monospace" font-size="10.00">hidden1.weight</text>
<text text-anchor="middle" x="217.5" y="-1108" font-family="monospace" font-size="10.00"> (256, 11)</text>
</g>
<!-- 140358501091824&#45;&gt;140358498822336 -->
<g id="edge27" class="edge">
<title>140358501091824&#45;&gt;140358498822336</title>
<path fill="none" stroke="black" d="M217.5,-1100.8C217.5,-1091.7 217.5,-1079.79 217.5,-1069.9"/>
<polygon fill="black" stroke="black" points="221,-1069.84 217.5,-1059.84 214,-1069.84 221,-1069.84"/>
</g>
<!-- 140358498820944 -->
<g id="node30" class="node">
<title>140358498820944</title>
<polygon fill="lightgrey" stroke="black" points="310,-812 233,-812 233,-793 310,-793 310,-812"/>
<text text-anchor="middle" x="271.5" y="-800" font-family="monospace" font-size="10.00">TBackward0</text>
</g>
<!-- 140358498820944&#45;&gt;140358496858560 -->
<g id="edge28" class="edge">
<title>140358498820944&#45;&gt;140358496858560</title>
<path fill="none" stroke="black" d="M255.56,-792.87C237.86,-783.28 209.04,-767.67 188.36,-756.47"/>
<polygon fill="black" stroke="black" points="189.96,-753.35 179.5,-751.67 186.63,-759.51 189.96,-753.35"/>
</g>
<!-- 140358498821040 -->
<g id="node31" class="node">
<title>140358498821040</title>
<polygon fill="lightgrey" stroke="black" points="329,-872.5 228,-872.5 228,-853.5 329,-853.5 329,-872.5"/>
<text text-anchor="middle" x="278.5" y="-860.5" font-family="monospace" font-size="10.00">AccumulateGrad</text>
</g>
<!-- 140358498821040&#45;&gt;140358498820944 -->
<g id="edge29" class="edge">
<title>140358498821040&#45;&gt;140358498820944</title>
<path fill="none" stroke="black" d="M277.47,-853.37C276.5,-845.25 275.01,-832.81 273.76,-822.39"/>
<polygon fill="black" stroke="black" points="277.2,-821.68 272.54,-812.17 270.25,-822.51 277.2,-821.68"/>
</g>
<!-- 140363091109072 -->
<g id="node32" class="node">
<title>140363091109072</title>
<polygon fill="lightblue" stroke="black" points="330,-944 229,-944 229,-914 330,-914 330,-944"/>
<text text-anchor="middle" x="279.5" y="-932" font-family="monospace" font-size="10.00">hidden2.weight</text>
<text text-anchor="middle" x="279.5" y="-921" font-family="monospace" font-size="10.00"> (512, 256)</text>
</g>
<!-- 140363091109072&#45;&gt;140358498821040 -->
<g id="edge30" class="edge">
<title>140363091109072&#45;&gt;140358498821040</title>
<path fill="none" stroke="black" d="M279.28,-913.8C279.14,-904.7 278.95,-892.79 278.8,-882.9"/>
<polygon fill="black" stroke="black" points="282.29,-882.79 278.64,-872.84 275.29,-882.9 282.29,-882.79"/>
</g>
<!-- 140358496851264 -->
<g id="node33" class="node">
<title>140358496851264</title>
<polygon fill="lightgrey" stroke="black" points="313,-625 236,-625 236,-606 313,-606 313,-625"/>
<text text-anchor="middle" x="274.5" y="-613" font-family="monospace" font-size="10.00">TBackward0</text>
</g>
<!-- 140358496851264&#45;&gt;140358496848000 -->
<g id="edge31" class="edge">
<title>140358496851264&#45;&gt;140358496848000</title>
<path fill="none" stroke="black" d="M258.56,-605.87C240.86,-596.28 212.04,-580.67 191.36,-569.47"/>
<polygon fill="black" stroke="black" points="192.96,-566.35 182.5,-564.67 189.63,-572.51 192.96,-566.35"/>
</g>
<!-- 140358496858320 -->
<g id="node34" class="node">
<title>140358496858320</title>
<polygon fill="lightgrey" stroke="black" points="332,-685.5 231,-685.5 231,-666.5 332,-666.5 332,-685.5"/>
<text text-anchor="middle" x="281.5" y="-673.5" font-family="monospace" font-size="10.00">AccumulateGrad</text>
</g>
<!-- 140358496858320&#45;&gt;140358496851264 -->
<g id="edge32" class="edge">
<title>140358496858320&#45;&gt;140358496851264</title>
<path fill="none" stroke="black" d="M280.47,-666.37C279.5,-658.25 278.01,-645.81 276.76,-635.39"/>
<polygon fill="black" stroke="black" points="280.2,-634.68 275.54,-625.17 273.25,-635.51 280.2,-634.68"/>
</g>
<!-- 140358501095104 -->
<g id="node35" class="node">
<title>140358501095104</title>
<polygon fill="lightblue" stroke="black" points="333,-757 232,-757 232,-727 333,-727 333,-757"/>
<text text-anchor="middle" x="282.5" y="-745" font-family="monospace" font-size="10.00">hidden3.weight</text>
<text text-anchor="middle" x="282.5" y="-734" font-family="monospace" font-size="10.00"> (256, 512)</text>
</g>
<!-- 140358501095104&#45;&gt;140358496858320 -->
<g id="edge33" class="edge">
<title>140358501095104&#45;&gt;140358496858320</title>
<path fill="none" stroke="black" d="M282.28,-726.8C282.14,-717.7 281.95,-705.79 281.8,-695.9"/>
<polygon fill="black" stroke="black" points="285.29,-695.79 281.64,-685.84 278.29,-695.9 285.29,-695.79"/>
</g>
<!-- 140358496846416 -->
<g id="node36" class="node">
<title>140358496846416</title>
<polygon fill="lightgrey" stroke="black" points="316,-438 239,-438 239,-419 316,-419 316,-438"/>
<text text-anchor="middle" x="277.5" y="-426" font-family="monospace" font-size="10.00">TBackward0</text>
</g>
<!-- 140358496846416&#45;&gt;140358495043200 -->
<g id="edge34" class="edge">
<title>140358496846416&#45;&gt;140358495043200</title>
<path fill="none" stroke="black" d="M261.56,-418.87C243.86,-409.28 215.04,-393.67 194.36,-382.47"/>
<polygon fill="black" stroke="black" points="195.96,-379.35 185.5,-377.67 192.63,-385.51 195.96,-379.35"/>
</g>
<!-- 140358496849776 -->
<g id="node37" class="node">
<title>140358496849776</title>
<polygon fill="lightgrey" stroke="black" points="335,-498.5 234,-498.5 234,-479.5 335,-479.5 335,-498.5"/>
<text text-anchor="middle" x="284.5" y="-486.5" font-family="monospace" font-size="10.00">AccumulateGrad</text>
</g>
<!-- 140358496849776&#45;&gt;140358496846416 -->
<g id="edge35" class="edge">
<title>140358496849776&#45;&gt;140358496846416</title>
<path fill="none" stroke="black" d="M283.47,-479.37C282.5,-471.25 281.01,-458.81 279.76,-448.39"/>
<polygon fill="black" stroke="black" points="283.2,-447.68 278.54,-438.17 276.25,-448.51 283.2,-447.68"/>
</g>
<!-- 140358494016416 -->
<g id="node38" class="node">
<title>140358494016416</title>
<polygon fill="lightblue" stroke="black" points="336,-570 235,-570 235,-540 336,-540 336,-570"/>
<text text-anchor="middle" x="285.5" y="-558" font-family="monospace" font-size="10.00">hidden4.weight</text>
<text text-anchor="middle" x="285.5" y="-547" font-family="monospace" font-size="10.00"> (64, 256)</text>
</g>
<!-- 140358494016416&#45;&gt;140358496849776 -->
<g id="edge36" class="edge">
<title>140358494016416&#45;&gt;140358496849776</title>
<path fill="none" stroke="black" d="M285.28,-539.8C285.14,-530.7 284.95,-518.79 284.8,-508.9"/>
<polygon fill="black" stroke="black" points="288.29,-508.79 284.64,-498.84 281.29,-508.9 288.29,-508.79"/>
</g>
<!-- 140358495028752 -->
<g id="node39" class="node">
<title>140358495028752</title>
<polygon fill="lightgrey" stroke="black" points="316,-251 239,-251 239,-232 316,-232 316,-251"/>
<text text-anchor="middle" x="277.5" y="-239" font-family="monospace" font-size="10.00">TBackward0</text>
</g>
<!-- 140358495028752&#45;&gt;140358495035520 -->
<g id="edge37" class="edge">
<title>140358495028752&#45;&gt;140358495035520</title>
<path fill="none" stroke="black" d="M260.63,-231.98C243.89,-223.54 218,-210.47 198.61,-200.68"/>
<polygon fill="black" stroke="black" points="200.18,-197.55 189.68,-196.17 197.03,-203.8 200.18,-197.55"/>
</g>
<!-- 140358495038880 -->
<g id="node40" class="node">
<title>140358495038880</title>
<polygon fill="lightgrey" stroke="black" points="336,-311.5 235,-311.5 235,-292.5 336,-292.5 336,-311.5"/>
<text text-anchor="middle" x="285.5" y="-299.5" font-family="monospace" font-size="10.00">AccumulateGrad</text>
</g>
<!-- 140358495038880&#45;&gt;140358495028752 -->
<g id="edge38" class="edge">
<title>140358495038880&#45;&gt;140358495028752</title>
<path fill="none" stroke="black" d="M284.32,-292.37C283.21,-284.25 281.51,-271.81 280.08,-261.39"/>
<polygon fill="black" stroke="black" points="283.51,-260.6 278.69,-251.17 276.57,-261.55 283.51,-260.6"/>
</g>
<!-- 140358494016976 -->
<g id="node41" class="node">
<title>140358494016976</title>
<polygon fill="lightblue" stroke="black" points="333,-383 238,-383 238,-353 333,-353 333,-383"/>
<text text-anchor="middle" x="285.5" y="-371" font-family="monospace" font-size="10.00">output.weight</text>
<text text-anchor="middle" x="285.5" y="-360" font-family="monospace" font-size="10.00"> (6, 64)</text>
</g>
<!-- 140358494016976&#45;&gt;140358495038880 -->
<g id="edge39" class="edge">
<title>140358494016976&#45;&gt;140358495038880</title>
<path fill="none" stroke="black" d="M285.5,-352.8C285.5,-343.7 285.5,-331.79 285.5,-321.9"/>
<polygon fill="black" stroke="black" points="289,-321.84 285.5,-311.84 282,-321.84 289,-321.84"/>
</g>
</g>
</svg>
